<svg xmlns="http://www.w3.org/2000/svg" xmlns:xlink="http://www.w3.org/1999/xlink" width="415" height="529" viewBox="0 0 415 529">
    <defs>
        <filter id="ep41uovx5a" width="106.5%" height="105.1%" x="-3.3%" y="-2.2%" filterUnits="objectBoundingBox">
            <feGaussianBlur in="SourceGraphic" stdDeviation="1"/>
        </filter>
        <filter id="eaubjl95gb" width="109.6%" height="107.5%" x="-4.8%" y="-3.3%" filterUnits="objectBoundingBox">
            <feOffset dy="2" in="SourceAlpha" result="shadowOffsetOuter1"/>
            <feGaussianBlur in="shadowOffsetOuter1" result="shadowBlurOuter1" stdDeviation="5"/>
            <feColorMatrix in="shadowBlurOuter1" values="0 0 0 0 0 0 0 0 0 0.760784314 0 0 0 0 0.823529412 0 0 0 0.2 0"/>
        </filter>
        <path id="vufvz0q0ac" d="M1286 1133.216c-5.766 10.586-10.834 21.63-17.418 31.68-33.197 50.663-70.741 97.837-117.682 136.519-31.148 25.665-66.212 45.077-106.218 53.409-32.588 6.788-64.755 6.29-95.661-8.935-27.355-13.479-43.314-35.917-51.825-64.032-12.002-39.657-9.622-79.632-.581-119.537 12.374-54.595 36.155-103.698 71.669-146.933 12.4-15.098 26.1-29.134 38.852-43.264-10.55-6.896-21.199-13.414-31.356-20.622-9.456-6.71-11.506-15.866-4.216-24.7 22.286-26.996 44.036-54.656 74.787-73.102 16.966-10.177 41.796 1.85 43.732 21.383.97 9.801-5.666 15.612-14.907 12.844-6.184-1.851-12.326-3.887-18.368-6.148-15.766-5.898-32.312.009-40.51 14.528-2.989 5.293-3.046 10.391 2.11 13.94 10.08 6.932 20.01 14.403 30.956 19.67 14.708 7.077 29.613 2.11 43.99-2.972 9.537-3.368 18.946-7.096 31.391-11.785-1.196 5.09-.883 9.564-2.83 11.011-8.033 5.978-16.235 12.183-25.3 16.242-48.777 21.844-88.085 55.028-121.458 96.423-17.997 22.321-32.526 46.199-42.37 72.906-9.866 26.768-14.696 54.442-5.67 82.256 10.322 31.804 34.232 50.835 64.427 62.812 34.599 13.723 70.082 11.932 105.605 5.07 42.227-8.155 77.848-29.949 111.157-55.88 26.06-20.29 48.627-44.204 69.67-69.58 1.578-1.9 3.342-3.645 5.02-5.462l3.004 2.26"/>
    </defs>
    <g fill="none" fill-rule="evenodd" opacity=".1">
        <g>
            <g filter="url(#ep41uovx5a)" transform="translate(-879 -842)">
                <use fill="#000" filter="url(#eaubjl95gb)" xlink:href="#vufvz0q0ac"/>
                <use fill="#55BFCF" xlink:href="#vufvz0q0ac"/>
            </g>
        </g>
    </g>
</svg>
